<svg xmlns="http://www.w3.org/2000/svg" version="1.1" viewBox="0 0 505.76 549.38">
<polygon fill="none" stroke="#F1F2F2" stroke-width="2" stroke-miterlimit="10" points="86.8,142 14.2,182.4 15,135.2 81.1,84"/>
<polygon fill="none" stroke="#F1F2F2" stroke-width="2" stroke-miterlimit="10" points="7.1,8.1 62.1,94 81.2,79.7"/>
<polygon fill="none" stroke="#F1F2F2" stroke-width="2" stroke-miterlimit="10" points="84.2,81.7 90.7,142.3 78.9,301.9 136.2,271.3 162.8,172.9 124.9,98.7"/>
<polygon fill="none" stroke="#F1F2F2" stroke-width="2" stroke-miterlimit="10" points="169,252.3 139.6,269.1 165.4,174.3 202.3,177.7"/>
<polygon fill="none" stroke="#F1F2F2" stroke-width="2" stroke-miterlimit="10" points="165.8,258.7 78.9,307.7 115.9,326.4 36.3,542 200.3,379.7 168.6,382.4"/>
<polygon fill="none" stroke="#F1F2F2" stroke-width="2" stroke-miterlimit="10" points="174.4,377.8 189.9,363 201.7,375.8"/>
<polygon fill="none" stroke="#F1F2F2" stroke-width="2" stroke-miterlimit="10" points="169.9,259.3 172.4,374 221.2,329.3"/>
<polygon fill="none" stroke="#F1F2F2" stroke-width="2" stroke-miterlimit="10" points="171.4,255.5 204.4,227.5 221.2,323.8"/>
<polygon fill="none" stroke="#F1F2F2" stroke-width="2" stroke-miterlimit="10" points="207.9,229 221.7,303.9 255.2,279.5"/>
<polygon fill="none" stroke="#F1F2F2" stroke-width="2" stroke-miterlimit="10" points="222.4,307.5 226.2,329.3 193.2,360.3 196.6,364 234.7,336.8 363.4,329.9 248.2,266.5 260.4,279.8"/>
<polygon fill="none" stroke="#F1F2F2" stroke-width="2" stroke-miterlimit="10" points="198.3,366 205.2,374.3 352.4,333.7 235.9,339.8"/>
<polygon fill="none" stroke="#F1F2F2" stroke-width="2" stroke-miterlimit="10" points="226.2,243.8 240.9,259.3 363.4,326.9 248.7,234"/>
<polygon fill="none" stroke="#F1F2F2" stroke-width="2" stroke-miterlimit="10" points="279.1,254.5 359.4,320.3 312.7,254.5"/>
<polygon fill="none" stroke="#F1F2F2" stroke-width="2" stroke-miterlimit="10" points="316.9,254.5 371.6,332.4 270.9,359.7 310.3,417.7 383.6,402.4 377.6,354.4 500.9,398 370.6,262.7"/>
<polygon fill="none" stroke="#F1F2F2" stroke-width="2" stroke-miterlimit="10" points="316.6,419.7 398.3,542 382.3,406.4"/>
</svg>
