<svg width="100" height="100" viewBox="0 0 100 100" fill="none" xmlns="http://www.w3.org/2000/svg">
<path d="M43.25 80.75C43.25 80.75 49.1719 87.7031 45.7969 95.4219" stroke="#69B965" stroke-width="3" stroke-miterlimit="10" stroke-linecap="round" stroke-linejoin="round"/>
<path d="M73.2967 95.4219C68.1092 71.7344 82.906 61.75 82.8748 42.8281H78.906H68.0467H66.7186H58.6404H38.3904H25.9529H20.4373C20.6717 44.9844 21.1248 47.0625 21.7654 49.0469L17.2811 60.4531C16.7029 61.9375 17.7498 63.5469 19.3436 63.5938L23.9842 63.75L26.7498 76.4531C27.4842 79.8906 30.7186 82.1875 34.2186 81.7813L50.5936 79.8906C50.5936 79.8906 54.9061 78.6875 57.3748 70.5156" stroke="#69B965" stroke-width="3" stroke-miterlimit="10" stroke-linecap="round" stroke-linejoin="round"/>
<path d="M57.4215 18.6562C57.4215 18.6562 56.2184 15.9219 51.6402 15.9219C47.0621 15.9219 43.9684 22.4375 50.2965 24.1406C57.5152 26.0781 58.484 27.4063 57.8746 30.2344C57.0934 33.9063 47.1871 34.5313 46.7652 29.3594" stroke="#69B965" stroke-width="3" stroke-miterlimit="10" stroke-linecap="round" stroke-linejoin="round"/>
<path d="M52 13L52 15" stroke="#69B965" stroke-width="3" stroke-miterlimit="10" stroke-linecap="round" stroke-linejoin="round"/>
<path d="M52 34L52 36" stroke="#69B965" stroke-width="3" stroke-miterlimit="10" stroke-linecap="round" stroke-linejoin="round"/>
<path d="M64.0469 42.8281C69.5156 39.0469 73.0938 32.7188 73.0938 25.5781C73.0938 13.9844 63.6875 4.59375 52.0938 4.59375C40.5156 4.59375 31.1094 14 31.1094 25.5781C31.1094 32.7188 34.7031 39.0469 40.1563 42.8281" stroke="#69B965" stroke-width="3" stroke-miterlimit="10" stroke-linecap="round" stroke-linejoin="round"/>
<path d="M26.8906 11.0938C24.5625 15.2813 23.25 20.0937 23.25 25.2187C23.25 31.8281 25.4375 37.9375 29.1719 42.8281" stroke="#69B965" stroke-width="3" stroke-miterlimit="10" stroke-linecap="round" stroke-linejoin="round"/>
<path d="M75.5938 42.8281C79.3125 37.9375 81.5156 31.8437 81.5156 25.2187C81.5156 19.9844 80.1406 15.0625 77.7188 10.8125" stroke="#69B965" stroke-width="3" stroke-miterlimit="10" stroke-linecap="round" stroke-linejoin="round"/>
</svg>
