<svg width="100" height="100" viewBox="0 0 100 100" fill="none" xmlns="http://www.w3.org/2000/svg">
<g clip-path="url(#clip0_260_986)">
<path d="M8.96875 94.5313C8.96875 94.5313 47.1563 94.6406 55.9844 94.2344C64.8281 93.8281 71.3594 87.2969 71.3594 87.2969L88.5 70.9844C90.5937 68.7188 88.5625 61.125 83.5156 65.4688L72.5156 73.7188C68.7656 76.5313 64.2031 78.0469 59.5156 78.0469H46.6094" stroke="#69B965" stroke-width="3" stroke-miterlimit="10" stroke-linecap="round" stroke-linejoin="round"/>
<path d="M13.375 76.4844L25.4062 76.5938C34.8906 76.7031 34.6875 69.6563 43.75 70.1719H53.0625C59.5469 70.2031 60.7969 78.0625 58.2187 78.0625" stroke="#69B965" stroke-width="3" stroke-miterlimit="10" stroke-linecap="round" stroke-linejoin="round"/>
<path d="M55.8594 23.1027C55.8594 23.1027 54.3398 19.6514 48.5703 19.6514C42.8009 19.6514 38.886 27.8676 46.8704 30.0312C55.9882 32.478 57.1987 34.1522 56.4518 37.7066C55.4473 42.3427 42.9555 43.1411 42.4403 36.599" stroke="#69B965" stroke-width="3" stroke-miterlimit="10" stroke-linecap="round" stroke-linejoin="round"/>
<path d="M49.3174 46.5668V41.3125" stroke="#69B965" stroke-width="3" stroke-miterlimit="10" stroke-linecap="round" stroke-linejoin="round"/>
<path d="M49.3174 19.6514V16.1743" stroke="#69B965" stroke-width="3" stroke-miterlimit="10" stroke-linecap="round" stroke-linejoin="round"/>
<path d="M74.9153 37.9073C78.2757 23.6761 69.4631 9.41526 55.2319 6.05486C41.0007 2.69447 26.7398 11.507 23.3795 25.7382C20.0191 39.9695 28.8316 54.2303 43.0628 57.5907C57.2941 60.9511 71.5549 52.1385 74.9153 37.9073Z" stroke="#69B965" stroke-width="3" stroke-miterlimit="10" stroke-linecap="round" stroke-linejoin="round"/>
</g>
<defs>
<clipPath id="clip0_260_986">
<rect width="100" height="100" fill="white"/>
</clipPath>
</defs>
</svg>
