<svg width="98" height="86" viewBox="0 0 98 86" fill="none" xmlns="http://www.w3.org/2000/svg">
<path d="M11.7592 24.6657C10.5007 27.2391 9.49554 29.881 8.96669 31.9188L11.5015 51.655C11.5326 51.6075 11.5655 51.5573 11.5999 51.5043C11.9187 51.0139 12.3667 50.3046 12.902 49.4454C13.9719 47.7279 15.3848 45.4204 16.7984 43.0874C18.2119 40.7544 19.6249 38.3977 20.6949 36.5817C21.2301 35.6734 21.6783 34.9022 21.9977 34.3376C22.1312 34.1014 22.2411 33.9035 22.3248 33.7478C21.7569 33.7052 20.6518 33.7 18.525 33.7C16.635 33.7 15.4834 33.6904 14.8042 33.6509C14.4725 33.6316 14.2127 33.6035 14.0268 33.5518C13.9359 33.5266 13.8128 33.483 13.7052 33.3941C13.5747 33.2863 13.484 33.1243 13.484 32.931C13.484 32.8592 13.4971 32.7871 13.5056 32.7441C13.516 32.6908 13.5302 32.6302 13.5466 32.5658C13.5795 32.4366 13.6258 32.2747 13.681 32.0929C13.7916 31.7286 13.9431 31.2691 14.1086 30.8012C18.1662 19.2732 27.935 10.3237 39.7354 7.26203L39.7364 7.26177C42.4603 6.56108 43.7798 6.3452 46.6764 6.15014L46.6768 6.15011C61.0327 5.19406 74.7236 12.7809 81.5502 25.459L81.5512 25.4608C82.0882 26.468 82.4716 27.0316 82.8462 27.3638C83.1898 27.6686 83.552 27.8013 84.1328 27.8527C84.6955 27.8947 85.1516 27.8068 85.5066 27.6246C85.8574 27.4447 86.1381 27.1585 86.3345 26.7512C86.543 26.3086 86.6042 25.9836 86.5398 25.5831C86.4694 25.1451 86.2445 24.5872 85.7845 23.6949C80.272 13.1836 70.5015 5.52377 59.002 2.69088C54.8939 1.70152 50.1558 1.28358 46.0535 1.56874C31.3773 2.61415 18.1638 11.5126 11.7595 24.6649L11.7592 24.6657ZM22.4904 33.4189C22.4903 33.4191 22.4899 33.4207 22.4893 33.4238L22.4896 33.4233C22.4903 33.4202 22.4905 33.4188 22.4904 33.4189Z" fill="#69B965" stroke="white"/>
<path d="M46.6149 26.3931V26.004V24.388C46.6149 23.962 46.6381 23.5362 46.6724 23.1946C46.6896 23.0235 46.709 22.8786 46.7287 22.7681C46.7403 22.7026 46.7502 22.6604 46.7563 22.6364C46.7628 22.634 46.772 22.6308 46.7843 22.6273C46.8176 22.6177 46.8683 22.6067 46.9447 22.5962C47.271 22.5516 47.8608 22.541 49.0219 22.541C50.047 22.541 50.6482 22.556 51.0001 22.5957C51.0766 22.6043 51.1334 22.6134 51.1748 22.6215C51.1757 22.6276 51.1766 22.6339 51.1775 22.6405C51.192 22.7443 51.2062 22.8859 51.219 23.0576C51.2446 23.399 51.2636 23.8359 51.2729 24.2811C51.273 24.2819 51.273 24.2827 51.273 24.2835L51.2919 25.9337L51.2962 26.3033L51.6508 26.4076L53.2858 26.8886L53.2908 26.8901C55.4003 27.4869 56.8769 28.3156 58.0739 29.5121C58.6316 30.079 59.15 30.7631 59.5144 31.3758C59.6968 31.6826 59.8342 31.9608 59.9192 32.1891C59.9616 32.303 59.9881 32.3969 60.0019 32.4704C60.0087 32.5067 60.0118 32.5349 60.0129 32.5557C60.013 32.5575 60.013 32.5592 60.0131 32.5609C59.9859 32.5821 59.9265 32.6214 59.8059 32.6779C59.4901 32.826 58.9261 33.0175 57.8999 33.3371C57.2348 33.53 56.6281 33.7129 56.1855 33.8475C56.05 33.8887 55.9284 33.9259 55.8259 33.9571C55.8098 33.9621 55.7941 33.9668 55.779 33.9715C55.67 33.8255 55.5281 33.6302 55.3769 33.4167C54.8885 32.6859 54.3043 32.2537 53.3417 31.7719L53.3385 31.7703C52.7623 31.487 52.3465 31.3055 51.8195 31.1935C51.3077 31.0848 50.7084 31.0457 49.7713 31.0074L49.7707 31.0074C47.3048 30.9097 45.3258 31.2605 43.9712 32.0991C42.5756 32.9631 41.8923 34.3161 41.9988 36.039C42.0503 36.925 42.2495 37.6633 42.6888 38.2936C43.1254 38.9201 43.7647 39.3904 44.6044 39.8052L44.6054 39.8057C45.1775 40.0868 45.6007 40.2599 46.2594 40.389C46.8922 40.5131 47.7438 40.5968 49.1687 40.721M46.6149 26.3931L49.2129 40.223M46.6149 26.3931L46.2377 26.4887L44.8729 26.8344C40.1789 28.0359 37.3799 31.4542 37.3799 35.797C37.3799 38.0529 38.0882 39.989 39.3976 41.5177C40.7101 43.05 42.6514 44.2016 45.1598 44.8361C45.9839 45.0425 47.095 45.206 47.6349 45.206C49.462 45.206 51.0938 45.4314 52.4086 45.8553C53.7122 46.2757 54.7625 46.9106 55.3421 47.7744L55.3421 47.7744L55.3451 47.779C56.1768 49.0487 56.2603 50.9342 55.5632 52.2844L55.5632 52.2844L55.5593 52.2918C54.4514 54.3519 51.8851 55.173 48.2305 55.0176C47.2929 54.9793 46.6936 54.9402 46.1818 54.8314C45.655 54.7195 45.2393 54.5379 44.6633 54.2547L44.6633 54.2547L44.6603 54.2532C43.6958 53.771 43.1131 53.3377 42.6249 52.6084C42.4737 52.3948 42.3318 52.1994 42.2228 52.0535C42.2069 52.0583 42.1905 52.0633 42.1736 52.0685C42.0716 52.0997 41.9507 52.1366 41.8164 52.1774C41.3736 52.3122 40.7665 52.4953 40.1012 52.6883C39.4009 52.9009 38.8955 53.0605 38.5343 53.2057C38.1547 53.3584 38.0264 53.4617 37.987 53.5133C37.9779 53.5252 37.9775 53.5285 37.9769 53.5349L37.9768 53.5356C37.9753 53.5508 37.9751 53.5934 38.0007 53.6809C38.0562 53.8704 38.188 54.1316 38.4154 54.5468L38.4154 54.5468L38.418 54.5515C39.5501 56.6719 41.9955 58.4463 44.8728 59.1896L44.8717 59.1893L44.7489 59.674L44.8739 59.1898L46.2377 59.5353L46.6149 59.6308V60.02V61.636C46.6149 61.6936 46.6148 61.7493 46.6148 61.8033C46.6145 62.3309 46.6143 62.6907 46.646 62.9585C46.6802 63.2476 46.7399 63.3034 46.7637 63.3227C46.8127 63.3623 46.9454 63.4247 47.3468 63.456C47.6993 63.4835 48.1683 63.4833 48.8212 63.483C48.8856 63.483 48.9518 63.483 49.0199 63.483C49.9352 63.483 50.5434 63.4682 50.9257 63.4322C51.0202 63.4233 51.0938 63.4137 51.1501 63.4043M46.6149 26.3931L51.1501 63.4043M49.1687 40.721C49.169 40.721 49.1692 40.7211 49.1694 40.7211L49.2129 40.223M49.1687 40.721C49.1684 40.721 49.168 40.721 49.1676 40.7209L49.2129 40.223M49.1687 40.721C50.9659 40.8844 52.1088 41.0263 53.0459 41.2438C53.9709 41.4584 54.7082 41.7497 55.6869 42.2295M49.2129 40.223C52.8099 40.55 53.9069 40.8 55.9079 41.781M55.6869 42.2295C55.6867 42.2294 55.6866 42.2293 55.6864 42.2292L55.9079 41.781M55.6869 42.2295C58.7853 43.7604 60.6219 46.7215 60.6219 50.227C60.6219 52.41 59.9589 54.2919 58.7269 55.7952C57.4924 57.3016 55.663 58.4557 53.2883 59.1353L53.2848 59.1363L51.6498 59.6173L51.3035 59.7192L51.2912 60.0798L51.2332 61.7729L51.2329 61.7799L51.233 61.7799C51.2236 62.2453 51.2046 62.6941 51.1812 63.0379C51.1712 63.1845 51.1606 63.3083 51.1501 63.4043M55.6869 42.2295C55.6872 42.2296 55.6875 42.2298 55.6878 42.2299L55.9079 41.781M55.9079 41.781C59.1789 43.397 61.1219 46.533 61.1219 50.227C61.1219 54.806 58.3319 58.212 53.4259 59.616L51.1501 63.4043M51.1501 63.4043C51.2099 63.3944 51.2503 63.3848 51.2756 63.3767C51.2788 63.3757 51.2817 63.3747 51.2843 63.3738M51.1501 63.4043C51.1482 63.4214 51.1463 63.4376 51.1445 63.4529C51.1389 63.4983 51.134 63.531 51.1301 63.5524L51.1192 63.5884C51.1221 63.5789 51.1252 63.5698 51.1285 63.561C51.1278 63.5647 51.1272 63.5676 51.1267 63.5698M51.2843 63.3738C51.2937 63.369 51.2996 63.3669 51.3002 63.3671C51.3007 63.3673 51.296 63.3698 51.2843 63.3738ZM51.2843 63.3738C51.2562 63.3883 51.1969 63.428 51.1526 63.5084C51.1468 63.519 51.1413 63.5302 51.1361 63.5422C51.1314 63.5544 51.1283 63.564 51.1267 63.5698M51.1267 63.5698C51.1257 63.5743 51.1251 63.5763 51.1251 63.5761C51.1251 63.576 51.1256 63.5738 51.1267 63.5698ZM51.1545 22.5117C51.1543 22.5113 51.1545 22.5122 51.1552 22.5142C51.1548 22.5128 51.1545 22.5119 51.1545 22.5117Z" fill="#69B965" stroke="white"/>
<path d="M86.632 34.583C86.582 34.5028 86.5352 34.4282 86.4919 34.3592C86.4702 34.3917 86.4476 34.4257 86.4242 34.4611C86.1223 34.9179 85.6945 35.5889 85.1709 36.4259C84.1246 38.0986 82.7028 40.4234 81.1551 42.9993C79.6163 45.5769 78.2027 47.9568 77.1694 49.7158C76.6525 50.5955 76.2317 51.3185 75.938 51.8328C75.8389 52.0064 75.7549 52.1551 75.687 52.2774C76.2605 52.3191 77.3703 52.324 79.4948 52.324H84.0738H84.6952L84.5622 52.931L84.4285 53.5408C84.2985 54.2132 83.7611 55.6211 83.1405 57.0646C82.5097 58.5319 81.7606 60.1094 81.1796 61.1328L81.1791 61.1338C76.1273 69.9883 67.5291 76.4605 57.4902 78.975L57.49 78.9751C52.7948 80.1486 46.6207 80.2244 41.5331 79.2114L41.5308 79.2109C31.1181 77.0856 21.6974 70.2256 16.814 61.163C16.3366 60.2847 15.6672 59.2514 15.3256 58.8751L15.3255 58.8751L15.3226 58.8718C14.9976 58.5074 14.8632 58.3893 14.722 58.3234C14.5748 58.2548 14.3728 58.221 13.8399 58.1912L13.8399 58.1913L13.8327 58.1908C13.1997 58.1463 12.7626 58.2229 12.4455 58.3851C12.1389 58.5418 11.8906 58.8061 11.6855 59.249L11.6855 59.2491L11.6823 59.2558C11.4615 59.7147 11.3945 60.0398 11.4545 60.4363C11.5203 60.8708 11.7435 61.4265 12.2141 62.3288C16.2252 70.0081 22.4975 76.1663 30.2351 80.0836C35.4454 82.7075 40.535 84.075 46.4712 84.4369L46.4722 84.437C62.744 85.4635 78.0287 76.8912 85.7292 62.4023L85.7301 62.4008C87.0024 60.027 88.3532 56.6392 88.9585 54.3707C88.9585 54.3705 88.9586 54.3703 88.9587 54.3701L89.4003 52.6973L89.4987 52.325H89.8838H93.9818C95.7365 52.325 96.731 52.3162 97.2812 52.2803C97.2047 52.1473 97.1126 51.9889 97.0064 51.8071C96.6842 51.2558 96.2347 50.4955 95.7 49.5962C94.6307 47.798 93.2225 45.4473 91.8148 43.109C90.407 40.7706 89.0001 38.4455 87.9333 36.698C87.3998 35.8241 86.9521 35.0958 86.632 34.583ZM97.5236 52.7126L97.5208 52.7057C97.5221 52.7093 97.5232 52.7116 97.5236 52.7126Z" fill="#69B965" stroke="white"/>
</svg>
