<svg width="17" height="20" viewBox="0 0 17 20" fill="none" xmlns="http://www.w3.org/2000/svg">
<g clip-path="url(#clip0_13_827)">
<path d="M10.5208 2.11589L14.1227 5.89355H10.5208V2.11589ZM6.93034 11.665C6.83861 11.7712 6.70845 11.8366 6.5685 11.8469C6.42855 11.8571 6.29027 11.8113 6.18408 11.7196C6.07789 11.6278 6.01249 11.4977 6.00226 11.3577C5.99204 11.2178 6.03783 11.0795 6.12956 10.9733L7.66276 9.19759C7.75485 9.09163 7.88518 9.02648 8.0252 9.01641C8.16523 9.00635 8.30353 9.05218 8.40983 9.14388C8.43276 9.1649 8.45449 9.18718 8.47494 9.21061L9.98861 10.8838C10.0825 10.9876 10.1313 11.1245 10.1243 11.2643C10.1173 11.4041 10.055 11.5353 9.95117 11.6292C9.84736 11.7231 9.71049 11.7719 9.5707 11.7649C9.4309 11.7579 9.29962 11.6956 9.20573 11.5918L8.59375 10.9163V13.431C8.59375 13.5007 8.58003 13.5697 8.55336 13.634C8.5267 13.6984 8.48761 13.7569 8.43834 13.8062C8.38907 13.8555 8.33058 13.8945 8.2662 13.9212C8.20183 13.9479 8.13283 13.9616 8.06315 13.9616C7.99347 13.9616 7.92448 13.9479 7.8601 13.9212C7.79572 13.8945 7.73723 13.8555 7.68796 13.8062C7.63869 13.7569 7.59961 13.6984 7.57294 13.634C7.54628 13.5697 7.53255 13.5007 7.53255 13.431V10.9668L6.93034 11.665ZM3.94206 13.903C3.94206 13.7623 3.99796 13.6273 4.09747 13.5278C4.19697 13.4283 4.33193 13.3724 4.47266 13.3724C4.61338 13.3724 4.74834 13.4283 4.84785 13.5278C4.94735 13.6273 5.00326 13.7623 5.00326 13.903V15.1172H11.1263V13.903C11.1223 13.831 11.133 13.7589 11.1579 13.6911C11.1827 13.6234 11.2211 13.5614 11.2707 13.509C11.3202 13.4566 11.38 13.4148 11.4463 13.3863C11.5125 13.3577 11.5839 13.343 11.6561 13.343C11.7282 13.343 11.7996 13.3577 11.8659 13.3863C11.9322 13.4148 11.9919 13.4566 12.0415 13.509C12.0911 13.5614 12.1295 13.6234 12.1543 13.6911C12.1791 13.7589 12.1899 13.831 12.1859 13.903V15.6478C12.1859 15.7885 12.13 15.9235 12.0305 16.023C11.931 16.1225 11.796 16.1784 11.6553 16.1784H4.47266C4.33193 16.1784 4.19697 16.1225 4.09747 16.023C3.99796 15.9235 3.94206 15.7885 3.94206 15.6478V13.903ZM16.1263 6.37858C16.1507 6.28581 15.9342 6.04167 15.6901 5.79915L10.3841 0.221354C10.3293 0.152971 10.26 0.0976332 10.1812 0.0593485C10.1024 0.0210638 10.016 0.000791427 9.92839 0L1.07747 0C0.79171 0 0.51765 0.113519 0.315585 0.315585C0.113519 0.51765 0 0.79171 0 1.07747L0 18.9225C0 19.064 0.0278697 19.2041 0.0820178 19.3349C0.136166 19.4656 0.215532 19.5844 0.315585 19.6844C0.415638 19.7845 0.534417 19.8638 0.665143 19.918C0.795868 19.9721 0.935978 20 1.07747 20H15.0488C15.1903 20 15.3304 19.9721 15.4612 19.918C15.5919 19.8638 15.7107 19.7845 15.8107 19.6844C15.9108 19.5844 15.9901 19.4656 16.0443 19.3349C16.0984 19.2041 16.1263 19.064 16.1263 18.9225V6.37858ZM14.9219 7.09798V18.7956H1.20443V1.19954H9.31803V6.49414C9.31803 6.57399 9.33386 6.65305 9.36461 6.72673C9.39537 6.80042 9.44043 6.86728 9.49719 6.92344C9.55395 6.9796 9.62129 7.02394 9.69531 7.0539C9.76932 7.08386 9.84854 7.09884 9.92839 7.09798H14.9219Z" fill="#2B7292"/>
</g>
<defs>
<clipPath id="clip0_13_827">
<rect width="16.1279" height="20" fill="white"/>
</clipPath>
</defs>
</svg>
